<mxfile host="app.diagrams.net" modified="2024-02-27T08:11:58.258Z" agent="Mozilla/5.0 (Windows NT 10.0; Win64; x64; rv:123.0) Gecko/20100101 Firefox/123.0" etag="TC4OcnCCpwSv-gtKaF8i" version="23.1.7" type="device">
  <diagram name="Страница — 1" id="5E-G4Now_tC-e3OiuwLp">
    <mxGraphModel dx="1167" dy="629" grid="1" gridSize="10" guides="1" tooltips="1" connect="1" arrows="1" fold="1" page="1" pageScale="1" pageWidth="827" pageHeight="1169" math="0" shadow="0">
      <root>
        <mxCell id="0" />
        <mxCell id="1" parent="0" />
        <mxCell id="jnzo3z-kXBf-AsIeAFTz-1" value="User" style="shape=umlActor;verticalLabelPosition=bottom;verticalAlign=top;html=1;outlineConnect=0;" parent="1" vertex="1">
          <mxGeometry x="219" y="570" width="30" height="60" as="geometry" />
        </mxCell>
        <mxCell id="jnzo3z-kXBf-AsIeAFTz-26" value="Приготовиться к игре" style="ellipse;whiteSpace=wrap;html=1;" parent="1" vertex="1">
          <mxGeometry x="340" y="750" width="120" height="80" as="geometry" />
        </mxCell>
        <mxCell id="jnzo3z-kXBf-AsIeAFTz-30" value="Посмотреть список активных игроков" style="ellipse;whiteSpace=wrap;html=1;" parent="1" vertex="1">
          <mxGeometry x="500" y="750" width="120" height="80" as="geometry" />
        </mxCell>
        <mxCell id="jnzo3z-kXBf-AsIeAFTz-31" value="" style="endArrow=none;dashed=1;html=1;dashPattern=1 3;strokeWidth=2;rounded=0;exitX=1;exitY=0.5;exitDx=0;exitDy=0;entryX=0;entryY=0.5;entryDx=0;entryDy=0;" parent="1" source="jnzo3z-kXBf-AsIeAFTz-26" target="jnzo3z-kXBf-AsIeAFTz-30" edge="1">
          <mxGeometry width="50" height="50" relative="1" as="geometry">
            <mxPoint x="244" y="950" as="sourcePoint" />
            <mxPoint x="294" y="900" as="targetPoint" />
          </mxGeometry>
        </mxCell>
        <mxCell id="jnzo3z-kXBf-AsIeAFTz-32" value="Отправить приглашение на игру" style="ellipse;whiteSpace=wrap;html=1;" parent="1" vertex="1">
          <mxGeometry x="380" y="580" width="120" height="80" as="geometry" />
        </mxCell>
        <mxCell id="jnzo3z-kXBf-AsIeAFTz-33" value="Принять приглашение в игру" style="ellipse;whiteSpace=wrap;html=1;" parent="1" vertex="1">
          <mxGeometry x="34" y="750" width="120" height="80" as="geometry" />
        </mxCell>
        <mxCell id="jnzo3z-kXBf-AsIeAFTz-34" value="Отклонить приглашение в игру" style="ellipse;whiteSpace=wrap;html=1;" parent="1" vertex="1">
          <mxGeometry x="174" y="750" width="120" height="80" as="geometry" />
        </mxCell>
        <mxCell id="jnzo3z-kXBf-AsIeAFTz-35" value="Определить порядок хода" style="ellipse;whiteSpace=wrap;html=1;" parent="1" vertex="1">
          <mxGeometry x="420" y="460" width="120" height="80" as="geometry" />
        </mxCell>
        <mxCell id="jnzo3z-kXBf-AsIeAFTz-36" value="Совершить ход" style="ellipse;whiteSpace=wrap;html=1;" parent="1" vertex="1">
          <mxGeometry x="174" y="420" width="120" height="80" as="geometry" />
        </mxCell>
        <mxCell id="jnzo3z-kXBf-AsIeAFTz-39" value="" style="endArrow=none;dashed=1;html=1;dashPattern=1 3;strokeWidth=2;rounded=0;entryX=0.5;entryY=0;entryDx=0;entryDy=0;exitX=1;exitY=0.5;exitDx=0;exitDy=0;" parent="1" source="jnzo3z-kXBf-AsIeAFTz-32" target="jnzo3z-kXBf-AsIeAFTz-30" edge="1">
          <mxGeometry width="50" height="50" relative="1" as="geometry">
            <mxPoint x="464" y="960" as="sourcePoint" />
            <mxPoint x="514" y="910" as="targetPoint" />
          </mxGeometry>
        </mxCell>
        <mxCell id="jnzo3z-kXBf-AsIeAFTz-41" value="" style="endArrow=none;html=1;rounded=0;entryX=1;entryY=1;entryDx=0;entryDy=0;entryPerimeter=0;exitX=0.5;exitY=0;exitDx=0;exitDy=0;" parent="1" source="jnzo3z-kXBf-AsIeAFTz-26" target="jnzo3z-kXBf-AsIeAFTz-1" edge="1">
          <mxGeometry width="50" height="50" relative="1" as="geometry">
            <mxPoint x="204" y="740" as="sourcePoint" />
            <mxPoint x="254" y="690" as="targetPoint" />
          </mxGeometry>
        </mxCell>
        <mxCell id="jnzo3z-kXBf-AsIeAFTz-53" value="" style="endArrow=none;html=1;rounded=0;entryX=0.5;entryY=0;entryDx=0;entryDy=0;entryPerimeter=0;exitX=0.5;exitY=1;exitDx=0;exitDy=0;" parent="1" source="jnzo3z-kXBf-AsIeAFTz-36" target="jnzo3z-kXBf-AsIeAFTz-1" edge="1">
          <mxGeometry width="50" height="50" relative="1" as="geometry">
            <mxPoint x="-16" y="960" as="sourcePoint" />
            <mxPoint x="34" y="910" as="targetPoint" />
          </mxGeometry>
        </mxCell>
        <mxCell id="jnzo3z-kXBf-AsIeAFTz-57" value="" style="endArrow=none;dashed=1;html=1;dashPattern=1 3;strokeWidth=2;rounded=0;exitX=0.5;exitY=0;exitDx=0;exitDy=0;entryX=0;entryY=0.5;entryDx=0;entryDy=0;" parent="1" source="jnzo3z-kXBf-AsIeAFTz-33" target="jnzo3z-kXBf-AsIeAFTz-36" edge="1">
          <mxGeometry width="50" height="50" relative="1" as="geometry">
            <mxPoint x="4" y="690" as="sourcePoint" />
            <mxPoint x="54" y="640" as="targetPoint" />
          </mxGeometry>
        </mxCell>
        <mxCell id="jnzo3z-kXBf-AsIeAFTz-58" value="Обновить состояние игры" style="ellipse;whiteSpace=wrap;html=1;" parent="1" vertex="1">
          <mxGeometry x="440" y="310" width="120" height="80" as="geometry" />
        </mxCell>
        <mxCell id="jnzo3z-kXBf-AsIeAFTz-59" value="" style="endArrow=classic;dashed=1;html=1;dashPattern=1 3;strokeWidth=2;rounded=0;exitX=1;exitY=0.5;exitDx=0;exitDy=0;entryX=0;entryY=0.5;entryDx=0;entryDy=0;endFill=1;" parent="1" source="jnzo3z-kXBf-AsIeAFTz-36" target="jnzo3z-kXBf-AsIeAFTz-58" edge="1">
          <mxGeometry width="50" height="50" relative="1" as="geometry">
            <mxPoint x="370" y="470" as="sourcePoint" />
            <mxPoint x="420" y="420" as="targetPoint" />
          </mxGeometry>
        </mxCell>
        <mxCell id="jnzo3z-kXBf-AsIeAFTz-67" value="" style="endArrow=classic;dashed=1;html=1;dashPattern=1 3;strokeWidth=2;rounded=0;exitX=0.5;exitY=0;exitDx=0;exitDy=0;entryX=1;entryY=0.5;entryDx=0;entryDy=0;startArrow=none;startFill=0;endFill=1;" parent="1" source="jnzo3z-kXBf-AsIeAFTz-35" target="jnzo3z-kXBf-AsIeAFTz-36" edge="1">
          <mxGeometry width="50" height="50" relative="1" as="geometry">
            <mxPoint x="370" y="630" as="sourcePoint" />
            <mxPoint x="420" y="580" as="targetPoint" />
          </mxGeometry>
        </mxCell>
        <mxCell id="kVgBxiJM-KrMWndX5PiG-1" value="" style="endArrow=none;dashed=1;html=1;dashPattern=1 3;strokeWidth=2;rounded=0;exitX=0.5;exitY=0;exitDx=0;exitDy=0;exitPerimeter=0;entryX=0;entryY=0.5;entryDx=0;entryDy=0;endFill=0;startArrow=classic;startFill=1;" edge="1" parent="1" source="jnzo3z-kXBf-AsIeAFTz-1" target="jnzo3z-kXBf-AsIeAFTz-35">
          <mxGeometry width="50" height="50" relative="1" as="geometry">
            <mxPoint x="230" y="570" as="sourcePoint" />
            <mxPoint x="280" y="520" as="targetPoint" />
          </mxGeometry>
        </mxCell>
        <mxCell id="kVgBxiJM-KrMWndX5PiG-4" value="" style="endArrow=none;html=1;strokeWidth=1;rounded=0;entryX=0;entryY=0.5;entryDx=0;entryDy=0;exitX=1;exitY=0.5;exitDx=0;exitDy=0;" edge="1" parent="1" source="jnzo3z-kXBf-AsIeAFTz-34" target="jnzo3z-kXBf-AsIeAFTz-26">
          <mxGeometry width="50" height="50" relative="1" as="geometry">
            <mxPoint x="280" y="890" as="sourcePoint" />
            <mxPoint x="330" y="840" as="targetPoint" />
          </mxGeometry>
        </mxCell>
        <mxCell id="kVgBxiJM-KrMWndX5PiG-5" value="" style="endArrow=none;html=1;strokeWidth=1;rounded=0;entryX=0.5;entryY=1;entryDx=0;entryDy=0;exitX=0.5;exitY=1;exitDx=0;exitDy=0;" edge="1" parent="1" source="jnzo3z-kXBf-AsIeAFTz-33" target="jnzo3z-kXBf-AsIeAFTz-26">
          <mxGeometry width="50" height="50" relative="1" as="geometry">
            <mxPoint x="270" y="950" as="sourcePoint" />
            <mxPoint x="320" y="900" as="targetPoint" />
            <Array as="points">
              <mxPoint x="230" y="870" />
            </Array>
          </mxGeometry>
        </mxCell>
        <mxCell id="kVgBxiJM-KrMWndX5PiG-6" value="" style="endArrow=none;dashed=1;html=1;dashPattern=1 3;strokeWidth=2;rounded=0;exitX=1;exitY=0.3333333333333333;exitDx=0;exitDy=0;exitPerimeter=0;entryX=0;entryY=0.5;entryDx=0;entryDy=0;" edge="1" parent="1" source="jnzo3z-kXBf-AsIeAFTz-1" target="jnzo3z-kXBf-AsIeAFTz-32">
          <mxGeometry width="50" height="50" relative="1" as="geometry">
            <mxPoint x="310" y="620" as="sourcePoint" />
            <mxPoint x="360" y="570" as="targetPoint" />
          </mxGeometry>
        </mxCell>
        <mxCell id="kVgBxiJM-KrMWndX5PiG-7" value="" style="endArrow=classic;dashed=1;html=1;dashPattern=1 3;strokeWidth=2;rounded=0;exitX=0.5;exitY=0;exitDx=0;exitDy=0;entryX=0.5;entryY=1;entryDx=0;entryDy=0;endFill=1;" edge="1" parent="1" source="jnzo3z-kXBf-AsIeAFTz-35" target="jnzo3z-kXBf-AsIeAFTz-58">
          <mxGeometry width="50" height="50" relative="1" as="geometry">
            <mxPoint x="550" y="470" as="sourcePoint" />
            <mxPoint x="600" y="420" as="targetPoint" />
          </mxGeometry>
        </mxCell>
      </root>
    </mxGraphModel>
  </diagram>
</mxfile>
